<svg width="20" height="20" viewBox="0 0 20 20" fill="none" xmlns="http://www.w3.org/2000/svg">
<g id="call">
<mask id="mask0_22_213" style="mask-type:alpha" maskUnits="userSpaceOnUse" x="0" y="0" width="20" height="20">
<rect id="Bounding box" width="20" height="20" fill="#D9D9D9"/>
</mask>
<g mask="url(#mask0_22_213)">
<path id="call_2" d="M15.8958 16.9792C14.2153 16.8542 12.6215 16.441 11.1146 15.7396C9.60762 15.0382 8.25693 14.0903 7.06248 12.8958C5.86804 11.7014 4.9236 10.3507 4.22915 8.84375C3.53471 7.3368 3.12498 5.74305 2.99998 4.0625C2.97221 3.77083 3.05901 3.51736 3.2604 3.30208C3.46179 3.0868 3.70832 2.97916 3.99998 2.97916H6.83332C7.06943 2.97916 7.27429 3.05208 7.4479 3.19791C7.62151 3.34375 7.7361 3.52778 7.79165 3.75L8.29165 5.97916C8.31943 6.15972 8.30901 6.33333 8.2604 6.5C8.21179 6.66666 8.13193 6.80555 8.02082 6.91666L5.99998 8.95833C6.27776 9.48611 6.59721 9.99305 6.95832 10.4792C7.31943 10.9653 7.72221 11.4236 8.16665 11.8542C8.58332 12.2708 9.02776 12.6562 9.49998 13.0104C9.97221 13.3646 10.4722 13.6806 11 13.9583L13.0625 11.9583C13.1736 11.8472 13.3125 11.7674 13.4792 11.7187C13.6458 11.6701 13.8194 11.6597 14 11.6875L16.2292 12.1667C16.4653 12.2361 16.6528 12.3576 16.7917 12.5312C16.9305 12.7049 17 12.9097 17 13.1458V15.9792C17 16.2708 16.8889 16.5174 16.6667 16.7187C16.4444 16.9201 16.1875 17.0069 15.8958 16.9792Z" fill="#1C1B1F"/>
</g>
</g>
</svg>
