<svg width="40" height="41" viewBox="0 0 40 41" fill="none" xmlns="http://www.w3.org/2000/svg">
<g id="Final">
<g id="mobile-copy">
<g id="Group-2">
<g id="Group-20">
<path id="Stroke-1" fill-rule="evenodd" clip-rule="evenodd" d="M20.0005 40.4862C8.9551 40.4862 0 31.5322 0 20.4867V20.4857C0 9.44025 8.9551 0.486206 20.0005 0.486206C31.046 0.486206 40 9.44025 40 20.4857V20.4867C40 31.5322 31.046 40.4862 20.0005 40.4862Z" fill="#080708"/>
<path id="Fill-3" fill-rule="evenodd" clip-rule="evenodd" d="M10.9314 29.3998H15.0711V16.0276H10.9314V29.3998Z" fill="white"/>
<path id="Fill-5" fill-rule="evenodd" clip-rule="evenodd" d="M12.9813 14.277C14.3328 14.277 15.4289 13.1714 15.4289 11.8094C15.4289 10.4463 14.3328 9.3418 12.9813 9.3418C11.6287 9.3418 10.5336 10.4463 10.5336 11.8094C10.5336 13.1714 11.6287 14.277 12.9813 14.277Z" fill="white"/>
<path id="Fill-6" fill-rule="evenodd" clip-rule="evenodd" d="M21.6875 22.3805C21.6875 20.5003 22.5524 19.3811 24.2098 19.3811C25.7315 19.3811 26.463 20.4562 26.463 22.3805V29.3997H30.5827V20.9333C30.5827 17.3517 28.5523 15.6198 25.7168 15.6198C22.8803 15.6198 21.6875 17.8288 21.6875 17.8288V16.0275H17.717V29.3997H21.6875V22.3805Z" fill="white"/>
</g>
</g>
</g>
</g>
</svg>
