<svg width="40" height="41" viewBox="0 0 40 41" fill="none" xmlns="http://www.w3.org/2000/svg">
<g id="Final">
<g id="mobile-copy">
<g id="Group-2">
<g id="Group-5">
<path id="Stroke-1" fill-rule="evenodd" clip-rule="evenodd" d="M20 40.4852C8.95486 40.4852 0 31.5313 0 20.4862V20.4852C0 9.44002 8.95486 0.486206 20 0.486206C31.0451 0.486206 40 9.44002 40 20.4852V20.4862C40 31.5313 31.0451 40.4852 20 40.4852Z" fill="#080708"/>
<path id="Fill-3" fill-rule="evenodd" clip-rule="evenodd" d="M9.34422 27.1809C11.279 28.422 13.5773 29.145 16.0459 29.145C24.1643 29.145 28.7505 22.2889 28.4741 16.1389C29.3285 15.5231 30.0694 14.7527 30.6558 13.8752C29.8718 14.2231 29.0289 14.4585 28.1451 14.5636C29.0468 14.0234 29.7404 13.1669 30.0662 12.1454C29.2223 12.6456 28.286 13.0103 27.2907 13.2068C26.4931 12.3566 25.357 11.8259 24.0991 11.8259C21.2774 11.8259 19.2029 14.4595 19.8397 17.194C16.2057 17.0122 12.9846 15.2719 10.8281 12.6257C9.68262 14.5919 10.2343 17.1625 12.1817 18.4635C11.4639 18.4414 10.7892 18.2439 10.1997 17.916C10.1534 19.9422 11.6047 21.837 13.7076 22.2594C13.0918 22.4265 12.4171 22.4644 11.733 22.334C12.2889 24.0712 13.9042 25.3344 15.8179 25.3701C13.9798 26.812 11.6636 27.4552 9.34422 27.1809Z" fill="white"/>
</g>
</g>
</g>
</g>
</svg>
