<svg xmlns="http://www.w3.org/2000/svg" xmlns:xlink="http://www.w3.org/1999/xlink" width="89px" height="28px" viewBox="0 0 89 28"><title>Group Copy</title><defs><polygon id="path-1" points="0 0 25.8461538 0 25.8461538 28 0 28"></polygon></defs><g id="Page-1" stroke="none" stroke-width="1" fill="none" fill-rule="evenodd"><g id="Group-Copy"><g id="Group-8-Copy-2"><path d="M27.8974359,11.9655255 L27.8974359,14.7384885 C27.8974359,18.6934802 26.5706941,22.0541058 24.0584009,24.4561488 C21.6693692,26.7419998 18.2964867,28 14.5605431,28 C6.25944236,28 0,21.9960099 0,14.0368686 C0,6.16710558 6.21686112,0 14.1526597,0 C19.0405379,0 23.565355,2.36405714 25.96111,6.16934004 L26.2703843,6.66315537 L20.2619471,10.0975182 L19.975084,9.64615753 C18.9127941,7.96361025 16.611166,6.87766339 14.1168018,6.87766339 C10.0200382,6.87766339 7.04607475,9.90535472 7.04607475,14.0748544 C7.04607475,18.2890432 10.0962362,21.1223366 14.6345,21.1223366 C17.3484938,21.1223366 19.3610177,20.1101269 20.391932,18.2510574 L13.778393,18.2510574 L13.778393,17.1224324 C13.778393,14.2743915 16.0941401,11.9655255 18.950669,11.9655255 L27.8974359,11.9655255 Z" id="Fill-1" fill="#FFFFFF"></path><g id="Group-5" transform="translate(29.128205, 0.000000)"><mask id="mask-2" fill="white"><use xlink:href="#path-1"></use></mask><g id="Clip-4"></g><path d="M19.7632604,17.7371155 L25.84392,21.2608623 L25.546812,21.747975 C23.1766505,25.6627526 18.8562994,28 13.9953461,28 C6.0158766,28 0,21.9803591 0,13.9988604 C0,6.01959623 6.0158766,-4.46892422e-05 13.9953461,-4.46892422e-05 C18.8183232,-4.46892422e-05 23.1364404,2.33720268 25.5445782,6.24751137 L25.8461538,6.73685857 L19.7699621,10.2606053 L19.4907254,9.77349258 C18.4519646,7.96134381 16.3967821,6.87762968 13.9953461,6.87762968 C9.75988299,6.87762968 7.02336281,9.67294178 7.02336281,13.9988604 C7.02336281,18.3270135 9.75988299,21.1223256 13.9953461,21.1223256 C16.4302905,21.1223256 18.4832391,20.0430804 19.4884915,18.2331661 L19.7632604,17.7371155 Z" id="Fill-3" fill="#FFFFFF" mask="url(#mask-2)"></path></g><path d="M67.3471382,0 C71.0907399,0 74.5481619,1.43399354 77.0818986,4.03977791 C79.6086552,6.63628077 81,10.1725367 81,13.9988398 C81,17.8274633 79.6086552,21.3637192 77.0818986,23.9625425 C74.5481619,26.5660065 71.0907399,28 67.3471382,28 L65.5186133,28 C60.2617497,28 56,23.7499959 56,18.507102 L56,0 L67.3471382,0 Z M67.7894339,7.32307692 L62.4144737,7.32307692 L62.4144737,16.149541 C62.4144737,18.649998 64.4331972,20.6769231 66.9232905,20.6769231 L66.9232905,20.6769231 L67.7894339,20.6769231 C69.5627189,20.6769231 71.2004451,19.9930185 72.4006362,18.7513664 C73.5975209,17.5119276 74.2565789,15.8254056 74.2565789,13.9994467 C74.2565789,12.1745944 73.5975209,10.4880724 72.4006362,9.24974023 C71.2004451,8.00698153 69.5627189,7.32307692 67.7894339,7.32307692 L67.7894339,7.32307692 Z" id="Combined-Shape" fill="#FFFFFF"></path></g><circle id="Oval-Copy-3" fill="#9AC332" cx="85" cy="24" r="4"></circle></g></g></svg>