<svg width="90" height="29" viewBox="0 0 90 29" fill="none" xmlns="http://www.w3.org/2000/svg">
<g id="Group Copy 4">
<g id="Group 8 Copy 2">
<path id="Fill 1" fill-rule="evenodd" clip-rule="evenodd" d="M28.2956 12.1733V14.9944C28.2956 19.0181 26.9499 22.4371 24.4017 24.8808C21.9786 27.2064 18.5576 28.4862 14.7683 28.4862C6.34877 28.4862 0 22.378 0 14.2806C0 6.2742 6.30558 0 14.3546 0C19.3123 0 23.9017 2.40511 26.3316 6.27647L26.6453 6.77886L20.5511 10.2729L20.2602 9.81367C19.1827 8.1019 16.8482 6.9971 14.3183 6.9971C10.163 6.9971 7.14663 10.0774 7.14663 14.3193C7.14663 18.6066 10.2403 21.4891 14.8434 21.4891C17.5961 21.4891 19.6373 20.4594 20.6829 18.568H13.975V17.4198C13.975 14.5223 16.3238 12.1733 19.2211 12.1733H28.2956Z" fill="black"/>
<g id="Group 5">
<mask id="mask0_26_236" style="mask-type:luminance" maskUnits="userSpaceOnUse" x="29" y="0" width="27" height="29">
<path id="Clip 4" fill-rule="evenodd" clip-rule="evenodd" d="M29.5439 0H55.7589V28.4862H29.5439V0Z" fill="white"/>
</mask>
<g mask="url(#mask0_26_236)">
<path id="Fill 3" fill-rule="evenodd" clip-rule="evenodd" d="M49.5892 18.0451L55.7566 21.63L55.4553 22.1256C53.0513 26.1083 48.6693 28.4862 43.739 28.4862C35.6456 28.4862 29.5439 22.362 29.5439 14.2419C29.5439 6.12405 35.6456 -0.00012207 43.739 -0.00012207C48.6308 -0.00012207 53.0105 2.37771 55.453 6.35593L55.7589 6.85377L49.596 10.4387L49.3128 9.94314C48.2592 8.09952 46.1747 6.99699 43.739 6.99699C39.4431 6.99699 36.6675 9.84084 36.6675 14.2419C36.6675 18.6452 39.4431 21.489 43.739 21.489C46.2087 21.489 48.2909 20.3911 49.3105 18.5497L49.5892 18.0451Z" fill="black"/>
</g>
</g>
<path id="Combined Shape" fill-rule="evenodd" clip-rule="evenodd" d="M78.1819 24.3787C80.7447 21.7347 82.1559 18.137 82.1559 14.2419C82.1559 10.3492 80.7447 6.75152 78.1819 4.10993C75.612 1.4589 72.1052 0 68.3082 0H56.7991V18.8285C56.7991 24.1624 61.1217 28.4862 66.4536 28.4862H68.3082C72.1052 28.4862 75.612 27.0273 78.1819 24.3787ZM73.4339 19.077C74.6478 17.8161 75.3163 16.1002 75.3163 14.2426C75.3163 12.386 74.6478 10.6702 73.4339 9.41039C72.2166 8.14605 70.5555 7.45027 68.7569 7.45027H63.3052V16.43C63.3052 18.9739 65.3527 21.036 67.8784 21.036H68.7569C70.5555 21.036 72.2166 20.3402 73.4339 19.077Z" fill="black"/>
</g>
<circle id="Oval Copy 3" cx="86.078" cy="24.5642" r="3.92202" fill="#9AC332"/>
</g>
</svg>
