<svg width="542" height="542" viewBox="0 0 542 542" fill="none" xmlns="http://www.w3.org/2000/svg">
<g id="Group">
<circle id="Oval Copy 9" cx="271" cy="271" r="270.5" fill="white" stroke="#7C8D85"/>
<g id="Group Copy 4">
<g id="Group 8 Copy 2">
<path id="Fill 1" fill-rule="evenodd" clip-rule="evenodd" d="M189.076 262.973V276.64C189.076 296.132 182.557 312.695 170.213 324.534C158.474 335.8 141.901 342 123.544 342C82.7563 342 52 312.409 52 273.182C52 234.395 82.547 204 121.54 204C145.557 204 167.79 215.651 179.562 234.406L181.082 236.84L151.559 253.766L150.149 251.542C144.93 243.249 133.62 237.897 121.364 237.897C101.234 237.897 86.6215 252.819 86.6215 273.369C86.6215 294.139 101.609 308.103 123.908 308.103C137.243 308.103 147.132 303.114 152.197 293.952H119.701V288.389C119.701 274.352 131.08 262.973 145.116 262.973H189.076Z" fill="#080708"/>
<g id="Group 5">
<mask id="mask0_1_27" style="mask-type:luminance" maskUnits="userSpaceOnUse" x="195" y="204" width="128" height="138">
<path id="Clip 4" fill-rule="evenodd" clip-rule="evenodd" d="M195.124 204H322.121V342H195.124V204Z" fill="white"/>
</mask>
<g mask="url(#mask0_1_27)">
<path id="Fill 3" fill-rule="evenodd" clip-rule="evenodd" d="M292.232 291.419L322.11 308.786L320.65 311.187C309.004 330.481 287.776 342 263.891 342C224.683 342 195.124 312.332 195.124 272.995C195.124 233.668 224.683 204 263.891 204C287.589 204 308.807 215.519 320.639 234.792L322.121 237.203L292.265 254.57L290.893 252.17C285.789 243.238 275.691 237.897 263.891 237.897C243.08 237.897 229.634 251.674 229.634 272.995C229.634 294.326 243.08 308.103 263.891 308.103C275.855 308.103 285.943 302.784 290.882 293.864L292.232 291.419Z" fill="#080708"/>
</g>
</g>
<path id="Combined Shape" fill-rule="evenodd" clip-rule="evenodd" d="M430.748 322.101C443.164 309.293 450 291.864 450 272.994C450 254.136 443.164 236.707 430.748 223.91C418.298 211.068 401.31 204 382.916 204H327.16V295.214C327.16 321.054 348.101 342 373.931 342H382.916C401.31 342 418.298 334.932 430.748 322.101ZM407.746 296.417C413.627 290.309 416.866 281.997 416.866 272.997C416.866 264.003 413.627 255.691 407.746 249.588C401.849 243.463 393.802 240.092 385.089 240.092H358.679V283.594C358.679 295.918 368.598 305.908 380.833 305.908H385.089C393.802 305.908 401.849 302.537 407.746 296.417Z" fill="#080708"/>
</g>
<circle id="Oval Copy 3" cx="469" cy="323" r="19" fill="#A8CF43"/>
</g>
</g>
</svg>
