<svg width="90" height="29" viewBox="0 0 218 69" fill="none"
  xmlns="http://www.w3.org/2000/svg">
  <path fill-rule="evenodd" clip-rule="evenodd" d="M68.5381 29.4865V36.3198C68.5381 46.0661 65.2786 54.3476 59.1064 60.2669C53.2371 65.8999 44.9506 69 35.7722 69C15.3781 69 0 54.2045 0 34.5909C0 15.1975 15.2735 0 34.7701 0C46.7786 0 57.8951 5.82571 63.781 15.203L64.5408 16.4199L49.7794 24.8832L49.0746 23.7709C46.4648 19.6246 40.8101 16.9485 34.682 16.9485C24.6171 16.9485 17.3107 24.4096 17.3107 34.6845C17.3107 45.0694 24.8043 52.0515 35.9539 52.0515C42.6216 52.0515 47.566 49.5571 50.0987 44.9758H33.8506V42.1946C33.8506 35.1762 39.5399 29.4865 46.5578 29.4865H68.5381Z" fill="white"/>
  <mask id="mask0_1_61" style="mask-type:luminance" maskUnits="userSpaceOnUse" x="71" y="0" width="65" height="69">
    <path fill-rule="evenodd" clip-rule="evenodd" d="M71.5619 0H135.06V69H71.5619V0Z" fill="white"/>
  </mask>
  <g mask="url(#mask0_1_61)">
    <path fill-rule="evenodd" clip-rule="evenodd" d="M120.116 43.7094L135.055 52.3929L134.325 53.5933C128.502 63.2405 117.888 69.0001 105.946 69.0001C86.3416 69.0001 71.5619 54.166 71.5619 34.4973C71.5619 14.8341 86.3416 0 105.946 0C117.795 0 128.403 5.75965 134.32 15.3958L135.06 16.6017L120.133 25.2852L119.447 24.0848C116.894 19.6191 111.845 16.9486 105.946 16.9486C95.5399 16.9486 88.8168 23.837 88.8168 34.4973C88.8168 45.1631 95.5399 52.0516 105.946 52.0516C111.928 52.0516 116.971 49.392 119.441 44.9318L120.116 43.7094Z" fill="white"/>
  </g>
  <path fill-rule="evenodd" clip-rule="evenodd" d="M189.374 59.0506C195.582 52.6463 199 43.932 199 34.4971C199 25.068 195.582 16.3537 189.374 9.95517C183.149 3.53377 174.655 0 165.458 0H137.58V45.6068C137.58 58.5268 148.05 69 160.965 69H165.458C174.655 69 183.149 65.4662 189.374 59.0506ZM177.873 46.2087C180.814 43.1544 182.433 38.9983 182.433 34.4986C182.433 30.0017 180.814 25.8456 177.873 22.794C174.925 19.7315 170.901 18.0462 166.544 18.0462H153.339V39.7971C153.339 45.9589 158.299 50.9538 164.416 50.9538H166.544C170.901 50.9538 174.925 49.2685 177.873 46.2087Z" fill="white"/>
  <circle cx="208.5" cy="59.5" r="9.5" fill="white"/>
</svg>
